<svg width="92" height="86" viewBox="0 0 92 86" fill="none" xmlns="http://www.w3.org/2000/svg">
<g filter="url(#filter0_d_77_130)">
<path d="M42.417 0C33.6837 1.37232e-05 26.4981 6.54603 25.3799 14.9401L20.9805 14.9373C11.6311 14.9305 3.99114 22.5323 4.00001 31.834L4.02695 60.9797C4.0273 61.3401 4.099 61.697 4.23797 62.0298C4.37693 62.3627 4.58043 62.6651 4.83685 62.9197C5.09327 63.1743 5.39758 63.3762 5.73242 63.5138C6.06726 63.6514 6.42606 63.722 6.78833 63.7217C7.15061 63.7213 7.50927 63.65 7.84384 63.5117C8.1784 63.3735 8.48232 63.171 8.73824 62.9159C8.99416 62.6608 9.19707 62.358 9.33538 62.0249C9.47369 61.6917 9.54469 61.3348 9.54433 60.9743L9.51739 31.8286C9.51132 25.4968 14.6109 20.4219 20.9751 20.4266L25.1563 20.4293L25.1832 58.3397L5.3147 72.4864C5.30417 72.5388 5.29519 72.5915 5.28776 72.6445C4.95726 72.885 4.68473 73.1958 4.48995 73.5541C4.29517 73.9125 4.18303 74.3095 4.16165 74.7164C4.22339 75.2048 4.416 75.6676 4.71932 76.0565C4.70086 76.1416 4.68647 76.2274 4.67621 76.3138C4.7417 76.3587 4.80912 76.4007 4.87826 76.4398C5.13333 76.6734 5.43037 76.8571 5.75382 76.9812C6.04335 77.1699 6.36596 77.3026 6.70482 77.3726C6.77537 77.4051 6.84728 77.4346 6.92034 77.4611H48.1714C56.8965 77.4611 64.0857 70.9606 65.2731 62.5961C66.6577 62.5974 68.148 62.607 69.5082 62.607C79.4689 62.6029 87.5692 54.4505 87.5609 44.5551V44.5524L87.534 16.4815C87.5337 16.121 87.462 15.7642 87.323 15.4314C87.184 15.0985 86.9805 14.7961 86.7241 14.5415C86.4677 14.2869 86.1634 14.085 85.8285 13.9474C85.4937 13.8098 85.1349 13.7392 84.7726 13.7395C84.4103 13.7399 84.0517 13.8112 83.7171 13.9495C83.3825 14.0877 83.0786 14.2902 82.8227 14.5453C82.5668 14.8004 82.3639 15.1032 82.2256 15.4363C82.0873 15.7694 82.0163 16.1264 82.0166 16.4868L82.0435 44.5577C82.0504 51.4876 76.4565 57.1149 69.5055 57.1177C68.2267 57.1182 66.8167 57.1081 65.5156 57.1067L65.486 19.1803L75.0148 12.844L86.7742 5.02556C86.8773 4.93717 86.9736 4.84132 87.0625 4.73878C87.1264 4.68092 87.1875 4.62009 87.2457 4.55652C87.6671 4.09011 87.9152 3.49418 87.9488 2.86792C87.9669 2.82726 87.984 2.78618 88 2.74469C87.987 2.65906 87.9699 2.5741 87.9488 2.49007C87.9311 2.30736 87.895 2.12687 87.8411 1.95132C87.7906 1.78742 87.7248 1.62859 87.6445 1.47691C87.613 1.38938 87.577 1.3035 87.5367 1.2196C87.4979 1.19271 87.4584 1.1668 87.4182 1.14193C87.0419 0.643121 86.506 0.286729 85.8988 0.13145C85.8135 0.109466 85.7272 0.0915582 85.6402 0.0777919C85.5094 0.0421858 85.3761 0.016221 85.2415 0.00011517L42.417 0ZM42.417 5.48928H76.1463L71.949 8.27948L61.8921 14.9669L31.1209 14.9454C32.1899 9.57864 36.693 5.48929 42.417 5.48928ZM30.6737 20.4347L59.9713 20.4535L59.9982 57.0907C50.2682 57.0667 40.3736 57.0314 30.6979 57.013L30.6737 20.4347ZM28.8229 62.4968C38.879 62.5108 49.3036 62.5538 59.5214 62.5799C58.3941 67.9182 53.8886 71.9717 48.1714 71.9717H15.5143L28.8229 62.4968Z" fill="url(#paint0_linear_77_130)"/>
</g>
<defs>
<filter id="filter0_d_77_130" x="0" y="0" width="92" height="85.4611" filterUnits="userSpaceOnUse" color-interpolation-filters="sRGB">
<feFlood flood-opacity="0" result="BackgroundImageFix"/>
<feColorMatrix in="SourceAlpha" type="matrix" values="0 0 0 0 0 0 0 0 0 0 0 0 0 0 0 0 0 0 127 0" result="hardAlpha"/>
<feOffset dy="4"/>
<feGaussianBlur stdDeviation="2"/>
<feComposite in2="hardAlpha" operator="out"/>
<feColorMatrix type="matrix" values="0 0 0 0 0.552941 0 0 0 0 0.192157 0 0 0 0 1 0 0 0 0.2 0"/>
<feBlend mode="normal" in2="BackgroundImageFix" result="effect1_dropShadow_77_130"/>
<feBlend mode="normal" in="SourceGraphic" in2="effect1_dropShadow_77_130" result="shape"/>
</filter>
<linearGradient id="paint0_linear_77_130" x1="6.92034" y1="77.4611" x2="84.8591" y2="2.34584" gradientUnits="userSpaceOnUse">
<stop stop-color="#8837FC"/>
<stop offset="1" stop-color="#00DEB1"/>
</linearGradient>
</defs>
</svg>
